inDegrees=no
num_controls=7
num_derivatives=13
num_iterations=126
num_multipliers=7
num_parameters=0
num_slacks=7
num_states=26
objective=0.451512
objective_accelerations=0.040910
objective_balance=0.004242
objective_effort=0.020188
objective_height=0.380783
objective_ligament=0.005389
solver_duration=1872.710779
status=Solve_Succeeded
success=true
DataType=double
version=3
OpenSimVersion=4.5
endheader
time	/jointset/ground_pelvis/pelvis_tilt/value	/jointset/ground_pelvis/pelvis_tx/value	/jointset/ground_pelvis/pelvis_ty/value	/jointset/hip_l/hip_flexion_l/value	/jointset/hip_l/hip_adduction_l/value	/jointset/hip_l/hip_rotation_l/value	/jointset/back/lumbar_extension/value	/jointset/patellofemoral_l/patellar_flexion_l/value	/jointset/knee_l/knee_flexion_l/value	/jointset/knee_l/knee_adduction_l/value	/jointset/knee_l/knee_rotation_l/value	/jointset/ankle_l/ankle_angle_l/value	/jointset/subtalar_l/subtalar_angle_l/value	/jointset/ground_pelvis/pelvis_tilt/speed	/jointset/ground_pelvis/pelvis_tx/speed	/jointset/ground_pelvis/pelvis_ty/speed	/jointset/hip_l/hip_flexion_l/speed	/jointset/hip_l/hip_adduction_l/speed	/jointset/hip_l/hip_rotation_l/speed	/jointset/back/lumbar_extension/speed	/jointset/patellofemoral_l/patellar_flexion_l/speed	/jointset/knee_l/knee_flexion_l/speed	/jointset/knee_l/knee_adduction_l/speed	/jointset/knee_l/knee_rotation_l/speed	/jointset/ankle_l/ankle_angle_l/speed	/jointset/subtalar_l/subtalar_angle_l/speed	/forceset/tau_hip_flexion_l	/forceset/tau_hip_adduction_l	/forceset/tau_hip_rotation_l	/forceset/tau_knee_flexion_l	/forceset/tau_ankle_angle_l	/forceset/tau_subtalar_angle_l	/forceset/tau_lumbar_extension	lambda_cid13_p0	lambda_cid13_p1	lambda_cid13_p2	lambda_cid13_p3	lambda_cid13_p4	lambda_cid13_p5	lambda_cid14_p0	/jointset/ground_pelvis/pelvis_tilt/accel	/jointset/ground_pelvis/pelvis_tx/accel	/jointset/ground_pelvis/pelvis_ty/accel	/jointset/hip_l/hip_flexion_l/accel	/jointset/hip_l/hip_adduction_l/accel	/jointset/hip_l/hip_rotation_l/accel	/jointset/back/lumbar_extension/accel	/jointset/patellofemoral_l/patellar_flexion_l/accel	/jointset/knee_l/knee_flexion_l/accel	/jointset/knee_l/knee_adduction_l/accel	/jointset/knee_l/knee_rotation_l/accel	/jointset/ankle_l/ankle_angle_l/accel	/jointset/subtalar_l/subtalar_angle_l/accel	gamma_cid13_p0	gamma_cid13_p1	gamma_cid13_p2	gamma_cid13_p3	gamma_cid13_p4	gamma_cid13_p5	gamma_cid14_p0
0.5	-0.3552110624307485	-0.04609319389748576	0.7948093537864835	0.9773541409056674	-0.4255989335785386	-0.3080116430567065	-0.251937574307203	0.5870641987796521	0.5870641987796191	-0.1740794416049735	-0.1675234247689617	-0.005333054582084104	-0.07768640522409309	-0.837756896244428	-0.2648186942652244	-0.375115410939558	2.142452318439857	-0.2189915437465727	0.5894622772100021	-0.1305443471103891	1.395205627502195	1.395205627502448	-0.001113955062827977	-0.04625514430788686	0.1767066954775213	-0.1545966142537266	-0.1776767563900913	0.01270275274999017	-0.005615663874932984	-0.1697590526368505	0.07432194849624872	0.05445442566940028	0.1723918897748049	-10.08362030425473	-25.40120524550285	7.731237412477306	-4.09514109970647	-529.9078460986832	-73.50673460594882	-35.31169297530882	0.5801867858093905	0.4706326551214852	-0.2553891564520953	-1.175917319977772	0.5244741318623449	-0.07192368187829067	1.00692392396621	-0.9021485051972067	-0.9021485051972237	0.01052471759124515	0.1540626541666952	-0.09734750072900789	0.4920142505667578	6.186674798254846e-09	-6.5070465169449e-07	-9.779219621387527e-08	-1.855914566819711e-07	-8.353940149683962e-08	4.393180220962938e-08	-8.746383375757905e-08
0.51	-0.3635579552921542	-0.04871750678738912	0.7910462028073353	0.9987161203609276	-0.4277628770702627	-0.3021226902609748	-0.253193340349122	0.6009693793578985	0.6009693793578822	-0.1740905046851034	-0.1679796698371042	-0.003571252198778204	-0.07920820672054968	-0.8315044045117421	-0.2600146257083156	-0.3774375361210661	2.129644061726224	-0.2137755943757327	0.5882474432858779	-0.1206278691800991	1.385640136381924	1.385640136381993	-0.001094636520701213	-0.04498654735830961	0.17562454531382	-0.1497531542578089	-0.1832990804693623	0.01382405973528318	-0.005414253606978991	-0.171042284980867	0.07432305638603383	0.05554392801242804	0.1765977946791221	-10.23222918498885	-25.80148369278756	7.741513517941718	-4.213079619658894	-532.5006345720375	-73.33624034772153	-34.77392367978128	0.665386504821611	0.4896457644908661	-0.2090529572340977	-1.37819091552448	0.5235004858914638	-0.1584576456399159	0.9811585415644342	-1.012284904977869	-1.0122849050054	-0.001884620280049116	0.1143744717342776	-0.1180460944625936	0.4822049542808891	8.73263083374714e-09	-6.352910783008338e-07	-1.196526655114609e-07	-1.850124997731318e-07	-7.443869424511505e-08	4.870864906575295e-08	-8.366363565120414e-08
0.52	-0.3718388020086683	-0.05129290863002035	0.7872621448247251	1.019941035035358	-0.4298739920390386	-0.2962483246840759	-0.2543505118489374	0.6147731979270358	0.6147731979270333	-0.1741012785883763	-0.1684230056844724	-0.001821150781163486	-0.08068123500101174	-0.8245476672661199	-0.2550364848107968	-0.3792968116319297	2.115039362273851	-0.2084258391570283	0.5865448334433373	-0.1108254386896477	1.374933225680221	1.374933225680108	-0.001056119690711316	-0.04367330015349107	0.1743665023392426	-0.1448419710548264	-0.1889214045486324	0.01494536672057924	-0.005212843339038487	-0.1723255173248802	0.07432416427582089	0.05663343035546019	0.1808036995834378	-10.38903885891234	-26.20089762237944	7.75230452459007	-4.318195485252724	-535.2176890945838	-73.19174932662834	-34.22320164927935	0.7210358883966503	0.5054471232434602	-0.1628192223231633	-1.535205867726026	0.5512353014352012	-0.1694788655615502	0.9841144359984718	-1.13043242148342	-1.130432421483395	0.01436437516387282	0.1629927052149544	-0.1325260629042291	0.5055588919796947	1.417204045653304e-08	-6.21280756195267e-07	-1.525942197713008e-07	-1.861232041575299e-07	-6.245918087638054e-08	5.295489004304237e-08	-7.818302376615556e-08
0.53	-0.3800466759207259	-0.05381772215886189	0.7834618201427006	1.041011142573789	-0.4319309605090113	-0.2903934458993743	-0.2554102761497923	0.6284643544989977	0.6284643544989968	-0.1741114427512531	-0.1688530017148258	-8.449264895033974e-05	-0.08210482198552742	-0.8169137140249468	-0.2499026225152285	-0.3806888057524576	2.098690896397653	-0.2029517992377773	0.5843529318090424	-0.1011588996382194	1.363113941911431	1.363113941911441	-0.0009763418771369203	-0.04231679976506612	0.1729354673467295	-0.1398706875931821	-0.1944425749002674	0.01598036358941799	-0.005034571520280512	-0.173555807486193	0.0743002575329223	0.05764129414319695	0.1848940174884889	-10.55123652546788	-26.56476756590566	7.758405466113932	-4.382841405755754	-537.8543008478809	-72.99486793635937	-33.66186718915947	0.8016010958447551	0.5208582077315038	-0.1155028872219465	-1.728337883039998	0.5480107343892439	-0.2558034837455918	0.9532019161927595	-1.235283313818895	-1.235283313800415	0.004716729014185137	0.1233480570274905	-0.1528534908315931	0.4937406019194637	1.503018568329911e-08	-5.963325763750321e-07	-1.64616513370358e-07	-1.819306780241841e-07	-5.40089951861836e-08	5.606475010610291e-08	-7.422709755305939e-08
